<svg xmlns="http://www.w3.org/2000/svg" width="500" height="500" viewBox="0 0 500 500"><path d="M375.309 358.232l-61.979-61.979c16.625-19.113 26.689-44.052 26.689-71.308 0-59.998-48.8-108.742-108.743-108.742-59.998 0-108.744 48.8-108.744 108.742s48.8 108.745 108.743 108.745c27.255 0 52.195-10.064 71.307-26.69l61.979 61.979c1.471 1.47 3.451 2.261 5.373 2.261s3.902-.734 5.375-2.261c2.939-2.941 2.939-7.807 0-10.747zM137.743 224.946c0-51.573 41.959-93.476 93.478-93.476 51.57 0 93.474 41.96 93.474 93.476 0 51.515-41.903 93.533-93.474 93.533-51.519 0-93.478-41.959-93.478-93.533zm0 0"/></svg>